Coordinates
version=1
nRows=16
nColumns=40
inDegrees=yes

Units are S.I. units (second, meters, Newtons, ...)
Angles are in degrees.

endheader
time	pelvis_tilt	pelvis_list	pelvis_rotation	pelvis_tx	pelvis_ty	pelvis_tz	hip_flexion_r	hip_adduction_r	hip_rotation_r	knee_angle_r	knee_angle_r_beta	ankle_angle_r	subtalar_angle_r	mtp_angle_r	hip_flexion_l	hip_adduction_l	hip_rotation_l	knee_angle_l	knee_angle_l_beta	ankle_angle_l	subtalar_angle_l	mtp_angle_l	lumbar_extension	lumbar_bending	lumbar_rotation	arm_flex_r	arm_add_r	arm_rot_r	elbow_flex_r	pro_sup_r	wrist_flex_r	wrist_dev_r	arm_flex_l	arm_add_l	arm_rot_l	elbow_flex_l	pro_sup_l	wrist_flex_l	wrist_dev_l
     17.05000000	     -6.34323418	     -3.95389593	     -1.04365120	      0.99820521	      0.91768156	      0.43286844	     14.94907929	     -6.95712477	     -7.71081141	     53.52070462	     53.52070462	      3.79804786	    -12.36904326	     -7.75590947	     23.71009495	     -2.83357921	     -2.60537870	     30.79025000	     30.79025000	     15.65302972	    -16.46001976	      7.73856787	     -9.56049746	      5.37546061	      4.07243163	     27.02383452	    -14.30002325	    -16.52467203	     31.86714254	     46.06159087	      0.00000000	      0.00000000	      6.33961852	    -15.17488879	     10.63284423	     42.20750442	     45.93231824	      0.00000000	      0.00000000
     17.06892857	     -6.20062914	     -4.06362729	     -1.43040922	      0.99736473	      0.91738200	      0.43147549	     17.17814854	     -6.73755890	     -6.72165619	     56.73363501	     56.73363501	      3.02586469	    -14.22696748	     -7.11723041	     23.30907992	     -2.92905856	     -2.78600041	     31.11239786	     31.11239786	     16.16603149	    -16.64888064	      7.70471700	     -9.79220729	      5.52410365	      3.59952136	     24.07863079	    -13.86121007	    -16.58559430	     30.61011635	     46.09857193	      0.00000000	      0.00000000	      8.23785549	    -15.78202312	     10.15250599	     43.38258594	     46.01540655	      0.00000000	      0.00000000
     17.08785714	     -5.98004643	     -4.24469243	     -1.79986102	      0.99651589	      0.91712591	      0.43015556	     19.27321773	     -6.38543188	     -5.83873859	     59.72207472	     59.72207472	      2.84013358	    -15.50651708	     -4.98811591	     22.85279593	     -3.10113757	     -2.95763360	     31.50901443	     31.50901443	     16.79827121	    -16.78691835	      7.86404802	    -10.14833056	      5.74755996	      3.47308777	     20.83780890	    -13.69227122	    -16.69303454	     29.46075999	     46.13731346	      0.00000000	      0.00000000	     10.38575771	    -16.28500083	      9.52300199	     44.82306252	     46.12455746	      0.00000000	      0.00000000
     17.10678571	     -5.81800498	     -4.36561420	     -2.17407317	      0.99556367	      0.91692362	      0.42894122	     21.41486197	     -6.04816066	     -5.02822788	     62.42691336	     62.42691336	      3.57398769	    -15.91601164	     -0.63412874	     22.37507761	     -3.19890663	     -3.12434758	     31.75787204	     31.75787204	     17.48249767	    -16.86915032	      8.27523923	    -10.46765579	      5.93523098	      3.20532100	     17.50187484	    -13.37925166	    -16.83484035	     28.77120116	     46.16791047	      0.00000000	      0.00000000	     12.57360359	    -16.80560735	      8.80439390	     45.82943529	     46.25035559	      0.00000000	      0.00000000
     17.12571429	     -5.72355728	     -4.44368658	     -2.53256536	      0.99449714	      0.91665528	      0.42784331	     23.37697647	     -5.77227898	     -4.40298346	     64.30680926	     64.30680926	      3.23569879	    -16.68391859	     -0.16476432	     21.95558256	     -3.25149410	     -3.30667919	     31.93361066	     31.93361066	     17.91602201	    -17.04436152	      8.16553567	    -10.68588288	      6.10176724	      2.65618536	     14.66964790	    -12.96574243	    -16.83779574	     27.56365694	     46.19837964	      0.00000000	      0.00000000	     14.61409461	    -17.52296878	      8.28916095	     46.76282848	     46.33243158	      0.00000000	      0.00000000
     17.14464286	     -5.61478046	     -4.64146154	     -2.92236746	      0.99343663	      0.91679110	      0.42704522	     25.10275749	     -5.29302516	     -3.89590198	     65.43006212	     65.43006212	      3.28197595	    -17.13785814	      0.80793862	     21.43651485	     -3.45923147	     -3.52808296	     31.96822046	     31.96822046	     18.32049379	    -17.14026923	      8.15591776	    -10.95243905	      6.37164948	      2.69912159	     11.56785544	    -12.86572848	    -16.88289505	     26.26118292	     46.23742049	      0.00000000	      0.00000000	     16.87605968	    -17.94568427	      7.60547602	     48.04935807	     46.43700624	      0.00000000	      0.00000000
     17.16357143	     -5.50148103	     -4.85135856	     -3.32486709	      0.99236123	      0.91717561	      0.42660707	     26.73982235	     -4.74810510	     -3.47387353	     66.02804054	     66.02804054	      4.51213993	    -16.89927580	      4.50633411	     20.82795814	     -3.70345844	     -3.75537670	     31.85324626	     31.85324626	     18.78528969	    -17.11166366	      8.33476137	    -11.24286315	      6.69499748	      2.68522350	      8.33155694	    -12.64667899	    -17.24229121	     26.10410257	     46.27982078	      0.00000000	      0.00000000	     19.08387039	    -18.12885065	      6.11647844	     49.03788213	     46.62367655	      0.00000000	      0.00000000
     17.18250000	     -5.48725669	     -5.02645131	     -3.71464546	      0.99115167	      0.91779282	      0.42633794	     28.13182659	     -4.32999274	     -3.33533019	     65.56458936	     65.56458936	      4.79591195	    -16.90319698	      4.41847059	     20.23576041	     -3.90177514	     -3.98815174	     31.51762904	     31.51762904	     19.01844333	    -17.16743494	      8.35253428	    -11.36669466	      7.03424633	      1.80341940	      6.14235930	    -12.23146219	    -17.26964696	     25.23436488	     46.30045424	      0.00000000	      0.00000000	     20.79720073	    -19.25020905	      5.63414078	     49.67924691	     46.69066917	      0.00000000	      0.00000000
     17.20142857	     -5.51338025	     -5.11085437	     -4.24652884	      0.98993703	      0.91869501	      0.42647244	     29.40006399	     -3.89061902	     -3.11102833	     64.32074173	     64.32074173	      5.09788984	    -16.95464592	      4.23676871	     19.52646600	     -4.07732203	     -4.47122226	     30.92192961	     30.92192961	     19.18354460	    -17.04602012	      8.28124985	    -11.54589228	      7.17912216	      2.54934369	      3.12855368	    -12.21785835	    -17.33178787	     23.99007091	     46.34463084	      0.00000000	      0.00000000	     23.03842831	    -19.09503247	      4.68884682	     51.81316756	     46.82147190	      0.00000000	      0.00000000
     17.22035714	     -5.58847662	     -5.21849250	     -4.82432558	      0.98873804	      0.91994857	      0.42691185	     30.41911752	     -3.45673288	     -3.09363026	     62.18928019	     62.18928019	      5.45860898	    -16.70335735	      3.85790827	     18.73002280	     -4.28715886	     -5.01443922	     30.07624227	     30.07624227	     19.27764428	    -16.93792094	      8.24232867	    -11.60951847	      7.39921906	      2.51656409	      0.76472123	    -12.02570771	    -17.43019009	     23.26291946	     46.37148370	      0.00000000	      0.00000000	     24.82792388	    -19.56493657	      3.78196484	     53.30203915	     46.93289868	      0.00000000	      0.00000000
     17.23928571	     -5.78392249	     -5.28386812	     -5.40179435	      0.98744985	      0.92118421	      0.42753834	     31.18140546	     -3.08772424	     -3.25159461	     59.06181697	     59.06181697	      5.05830379	    -16.59388579	      0.39238418	     18.00491865	     -4.48087398	     -5.62786986	     29.06884986	     29.06884986	     18.87667796	    -16.78280282	      7.23571366	    -11.66607095	      7.60565326	      2.24724604	     -1.66871276	    -11.73426987	    -17.94715863	     23.80989840	     46.41511404	      0.00000000	      0.00000000	     25.94601388	    -19.81651911	      0.94536949	     55.90992249	     47.20695219	      0.00000000	      0.00000000
     17.25821429	     -6.02725144	     -5.27917340	     -6.06964656	      0.98621567	      0.92261199	      0.42853056	     31.78074098	     -2.69841476	     -3.41744265	     55.34656234	     55.34656234	      5.43214402	    -15.83424556	     -0.57397929	     17.22783762	     -4.60716096	     -6.30803220	     27.92171167	     27.92171167	     18.77005991	    -16.56688932	      7.18630085	    -11.59036240	      7.71143678	      2.39689788	     -3.68398978	    -11.59835791	    -17.98422099	     23.02297999	     46.44945539	      0.00000000	      0.00000000	     27.66671207	    -20.21962355	      0.22873351	     57.48060773	     47.29653771	      0.00000000	      0.00000000
     17.27714286	     -6.27745521	     -5.28280980	     -6.75702652	      0.98515076	      0.92405140	      0.42972844	     31.89235203	     -2.29700790	     -3.75704104	     50.60278364	     50.60278364	      4.53825448	    -15.23418630	     -5.14749547	     16.33065601	     -4.74471501	     -7.06909376	     26.54165458	     26.54165458	     18.21200059	    -16.39737634	      6.03105421	    -11.51435411	      7.86015249	      2.14175633	     -5.55070958	    -11.42966876	    -18.29011370	     23.30907514	     46.49862211	      0.00000000	      0.00000000	     28.68231307	    -20.75714095	     -1.62394367	     59.93205674	     47.47010491	      0.00000000	      0.00000000
     17.29607143	     -6.52862851	     -5.22290507	     -7.47190580	      0.98414188	      0.92541817	      0.43118569	     31.83668811	     -1.89579804	     -4.13265497	     45.63591717	     45.63591717	      4.98924903	    -13.14238029	     -5.52507029	     15.44909939	     -4.81755873	     -7.86690699	     25.23042932	     25.23042932	     18.14754448	    -16.00379295	      6.03973015	    -11.41290644	      7.91885046	      2.28587608	     -7.18232089	    -11.30899958	    -18.32261333	     22.80779758	     46.51797487	      0.00000000	      0.00000000	     30.34417302	    -21.25134166	     -2.16341211	     61.35792243	     47.54066372	      0.00000000	      0.00000000
     17.31500000	     -6.87225952	     -5.07497601	     -8.15809364	      0.98332957	      0.92637582	      0.43278814	     31.53927670	     -1.58386233	     -4.72173670	     40.19702047	     40.19702047	      5.12165494	    -10.38495960	     -6.56777491	     14.64559682	     -4.79549974	     -8.68616110	     23.85739054	     23.85739054	     17.80381457	    -15.64911842	      5.38882153	    -11.18427693	      7.90619037	      2.36999701	     -8.82782581	    -11.19996273	    -18.51972720	     23.05302596	     46.52586156	      0.00000000	      0.00000000	     31.52627076	    -21.65497144	     -3.13013379	     63.38035137	     47.64511568	      0.00000000	      0.00000000
     17.33392857	     -7.09458031	     -4.93703726	     -8.82070872	      0.98277140	      0.92719833	      0.43464158	     30.83822867	     -1.16530060	     -5.27040569	     34.55022685	     34.55022685	      5.26178568	     -7.06343962	     -6.36454969	     13.75074118	     -4.77480373	     -9.50472080	     22.60806523	     22.60806523	     17.65898325	    -15.21321821	      5.03538980	    -11.08514550	      7.87209858	      2.36432383	    -10.07653259	    -11.07958202	    -18.62896707	     23.14167276	     46.52679076	      0.00000000	      0.00000000	     32.90172656	    -22.25197761	     -3.78644086	     64.81517445	     47.72087971	      0.00000000	      0.00000000
